<?xml version="1.0" encoding="utf-8"?>
<!-- Generator: Adobe Illustrator 18.1.1, SVG Export Plug-In . SVG Version: 6.00 Build 0)  -->
<!DOCTYPE svg PUBLIC "-//W3C//DTD SVG 1.1//EN" "http://www.w3.org/Graphics/SVG/1.1/DTD/svg11.dtd">
<svg version="1.1" id="Layer_1" xmlns="http://www.w3.org/2000/svg" xmlns:xlink="http://www.w3.org/1999/xlink" x="0px" y="0px"
	 viewBox="0 0 960 560" enable-background="new 0 0 960 560" xml:space="preserve">
<rect fill="#DB8B2D" stroke="#000000" stroke-miterlimit="10" width="960" height="560"/>
<line fill="none" stroke="#000000" stroke-miterlimit="10" x1="0" y1="280.5" x2="272" y2="280.5"/>
<line fill="none" stroke="#000000" stroke-miterlimit="10" x1="366.5" y1="280" x2="366.5" y2="560"/>
<line fill="none" stroke="#000000" stroke-miterlimit="10" x1="934" y1="280.5" x2="960" y2="280.5"/>
<line fill="none" stroke="#000000" stroke-miterlimit="10" x1="189.5" y1="244" x2="189.5" y2="281"/>
<line fill="none" stroke="#000000" stroke-miterlimit="10" x1="366.5" y1="195" x2="366.5" y2="0"/>
<line fill="none" stroke="#000000" stroke-miterlimit="10" x1="366" y1="195.5" x2="340" y2="195.5"/>
<line fill="none" stroke="#000000" stroke-miterlimit="10" x1="252.5" y1="196" x2="252.5" y2="281"/>
<line fill="none" stroke="#000000" stroke-miterlimit="10" x1="252" y1="196.5" x2="190" y2="196.5"/>
<line fill="none" stroke="#000000" stroke-miterlimit="10" x1="189.5" y1="197" x2="189.5" y2="244"/>
<line fill="none" stroke="#000000" stroke-miterlimit="10" x1="475" y1="280.5" x2="826" y2="280.5"/>
<line fill="none" stroke="#000000" stroke-miterlimit="10" x1="189" y1="244.5" x2="0" y2="244.5"/>
<line fill="none" stroke="#000000" stroke-miterlimit="10" x1="366" y1="195.5" x2="416" y2="195.5"/>
<line fill="none" stroke="#000000" stroke-miterlimit="10" x1="415.5" y1="196" x2="415.5" y2="0"/>
<line fill="none" stroke="#000000" stroke-miterlimit="10" x1="509" y1="196.5" x2="575" y2="196.5"/>
<line fill="none" stroke="#000000" stroke-miterlimit="10" x1="575.5" y1="197" x2="575.5" y2="0"/>
<line fill="none" stroke="#000000" stroke-miterlimit="10" x1="366" y1="280.5" x2="381" y2="280.5"/>
<line fill="none" stroke="#000000" stroke-miterlimit="10" x1="416" y1="195.5" x2="434" y2="195.5"/>
<rect x="575.5" fill="#B89787" width="60.5" height="189"/>
<rect x="575.5" fill="#B89787" width="250.5" height="58"/>
<ellipse fill="#FFFFFF" cx="539.5" cy="95.3" rx="23.5" ry="18.8"/>
<rect x="557.9" y="85.1" fill="#FFFFFF" width="17.1" height="19.9"/>
<line fill="none" stroke="#000000" stroke-miterlimit="10" x1="366" y1="137.5" x2="416" y2="137.5"/>
<line fill="none" stroke="#000000" stroke-miterlimit="10" x1="366" y1="525.5" x2="417" y2="525.5"/>
<line fill="none" stroke="#000000" stroke-miterlimit="10" x1="416.5" y1="526" x2="416.5" y2="560"/>
<line fill="none" stroke="#000000" stroke-miterlimit="10" x1="272" y1="197.5" x2="252" y2="197.5"/>
</svg>
